<?xml version="1.0" standalone="no"?>
<!DOCTYPE svg PUBLIC "-//W3C//DTD SVG 20010904//EN"
 "http://www.w3.org/TR/2001/REC-SVG-20010904/DTD/svg10.dtd">
<svg version="1.0" xmlns="http://www.w3.org/2000/svg"
 width="1024.000000pt" height="1024.000000pt" viewBox="0 0 1024.000000 1024.000000"
 preserveAspectRatio="xMidYMid meet">
<metadata>
Created by potrace 1.14, written by Peter Selinger 2001-2017
</metadata>
<g transform="translate(0.000000,1024.000000) scale(0.100000,-0.100000)"
fill="#000000" stroke="none">
<path d="M5017 8644 c-1 -1 -63 -5 -137 -8 -74 -3 -144 -8 -155 -10 -12 -2
-51 -7 -87 -10 -37 -4 -77 -9 -90 -12 -13 -3 -41 -7 -63 -10 -22 -2 -46 -7
-54 -10 -8 -2 -30 -7 -50 -10 -20 -3 -49 -9 -66 -14 -16 -5 -43 -12 -60 -15
-16 -3 -34 -7 -40 -9 -5 -2 -23 -6 -40 -10 -41 -10 -305 -95 -330 -106 -11 -5
-65 -28 -120 -51 -274 -114 -537 -276 -825 -507 -142 -114 -408 -375 -495
-487 -16 -21 -50 -64 -75 -95 -50 -63 -59 -75 -130 -175 -67 -94 -62 -86 -131
-200 -151 -247 -289 -581 -364 -875 -33 -131 -35 -136 -41 -184 -3 -22 -7 -43
-9 -46 -2 -4 -7 -29 -10 -56 -3 -27 -8 -60 -11 -74 -9 -50 -13 -76 -19 -155
-4 -44 -9 -93 -11 -110 -6 -46 -6 -504 -1 -560 3 -27 8 -84 12 -125 3 -41 8
-88 11 -103 3 -16 7 -38 9 -50 13 -102 22 -151 47 -257 11 -47 22 -93 24 -103
2 -10 6 -27 9 -37 3 -10 8 -27 10 -37 10 -47 91 -278 136 -386 73 -173 199
-415 221 -425 5 -2 8 -8 8 -13 0 -9 88 -149 100 -159 4 -3 15 -20 25 -38 11
-17 23 -32 27 -32 4 0 8 -5 8 -11 0 -6 21 -36 46 -67 53 -67 58 -73 104 -132
35 -45 46 -56 171 -186 232 -241 478 -440 752 -607 118 -72 341 -187 363 -187
8 0 14 -5 14 -10 0 -6 3 -9 8 -8 4 0 16 -2 27 -7 11 -4 45 -18 75 -30 91 -37
322 -113 355 -116 2 0 34 -9 71 -19 36 -11 103 -26 148 -34 44 -8 95 -18 111
-21 272 -50 759 -64 1028 -30 15 2 55 6 90 10 34 3 69 8 77 10 8 2 31 7 50 10
107 17 163 28 235 47 44 11 88 22 98 24 41 10 58 15 177 54 387 128 741 324
1080 599 94 76 134 113 285 258 94 90 197 207 298 338 59 77 111 145 116 151
4 5 14 21 21 34 7 13 20 32 29 41 24 27 164 263 211 359 23 47 58 123 77 170
19 47 40 99 48 115 24 56 109 319 120 375 2 8 10 42 18 75 8 33 18 76 21 95 3
19 8 45 10 56 2 12 7 37 10 55 3 19 7 43 10 54 2 11 7 52 11 90 4 39 9 84 11
100 23 177 22 669 -1 780 -2 11 -7 53 -10 94 -3 41 -8 77 -10 81 -2 3 -11 51
-20 105 -9 55 -27 144 -41 200 -15 55 -27 105 -28 110 -1 6 -18 60 -38 120
-77 235 -191 491 -295 660 -27 44 -56 91 -64 105 -8 14 -17 27 -20 30 -3 3
-29 40 -58 84 -29 43 -59 86 -66 95 -8 9 -53 66 -101 126 -104 132 -213 246
-434 455 -8 9 -49 42 -90 75 -41 32 -77 62 -80 65 -7 8 -234 169 -285 201
-162 104 -312 183 -494 258 -111 47 -329 124 -381 135 -14 3 -78 19 -143 35
-65 16 -137 32 -160 35 -40 6 -58 9 -116 21 -13 2 -56 7 -95 10 -39 4 -77 8
-83 10 -27 9 -488 26 -496 19z m209 -901 c119 -120 228 -235 241 -257 32 -50
34 -116 5 -172 -11 -22 -77 -98 -146 -168 -136 -137 -153 -158 -159 -196 -6
-34 12 -65 72 -130 57 -61 73 -102 57 -140 -12 -29 -117 -142 -160 -172 -23
-17 -46 -21 -125 -23 -53 -1 -103 -4 -111 -6 -24 -6 -200 -187 -201 -206 0
-10 -2 -26 -4 -36 -3 -16 86 -212 201 -441 39 -78 43 -126 14 -173 -23 -39
-62 -51 -148 -47 -69 2 -80 9 -182 103 -60 55 -95 75 -156 89 -47 11 -112 -4
-299 -68 -66 -23 -129 -43 -139 -45 -76 -17 -152 -51 -187 -85 -42 -40 -55
-145 -24 -197 33 -56 286 -188 427 -223 47 -11 126 -23 175 -26 61 -4 97 -11
119 -25 44 -27 129 -119 218 -238 85 -113 157 -190 178 -192 7 -1 238 -2 513
-3 275 -2 516 -6 535 -11 97 -22 159 -63 297 -198 147 -143 203 -217 229 -305
32 -110 15 -277 -40 -393 -53 -108 -77 -138 -241 -304 -91 -92 -124 -135 -131
-174 -2 -12 -11 -45 -19 -71 -10 -34 -27 -96 -27 -100 0 -3 -9 -27 -20 -55
-18 -45 -50 -135 -205 -565 -24 -69 -50 -130 -56 -136 -10 -10 -143 -39 -227
-49 -93 -12 -148 -17 -240 -21 -58 -3 -110 -7 -117 -9 -7 -2 -15 0 -17 4 -3 4
-6 116 -6 249 -1 251 -8 305 -52 427 -61 169 -171 342 -316 494 -17 18 -56 97
-72 145 -9 27 -14 133 -16 345 -1 168 -5 317 -8 330 -19 87 -60 165 -109 213
-53 50 -97 77 -307 190 -36 20 -92 50 -125 68 -33 18 -125 66 -205 108 -439
226 -658 394 -847 649 -56 76 -247 355 -269 393 -5 10 -18 29 -27 42 -9 13
-66 98 -126 189 l-109 167 78 150 c43 83 92 171 109 197 17 25 31 48 31 50 0
6 149 215 165 231 5 6 28 33 50 60 163 201 446 440 696 587 105 62 317 167
336 167 7 0 93 -40 191 -89 237 -119 288 -125 392 -50 63 46 83 100 84 227 0
75 4 102 13 102 7 0 16 1 21 2 37 9 108 19 162 24 36 4 67 8 69 10 2 2 21 4
42 4 36 0 49 -11 255 -217z m2454 -1390 c8 -16 14 -30 15 -33 0 -3 16 -36 34
-75 18 -38 39 -90 47 -115 9 -25 18 -52 21 -60 4 -8 7 -17 8 -20 1 -3 5 -12 8
-20 11 -26 76 -254 81 -285 3 -16 10 -55 16 -85 16 -81 17 -87 30 -183 29
-230 30 -444 3 -657 -4 -30 -6 -58 -5 -62 3 -11 -16 -10 -37 2 -10 5 -30 11
-45 14 -27 5 -233 62 -336 93 -68 20 -117 48 -154 87 -51 56 -325 476 -338
519 -32 112 -10 212 75 344 24 37 90 140 145 228 65 101 117 173 144 195 40
33 241 139 264 140 6 0 17 -12 24 -27z"/>
</g>
</svg>
